<?xml version="1.0" standalone="no"?>
<!DOCTYPE svg PUBLIC "-//W3C//DTD SVG 20010904//EN"
 "http://www.w3.org/TR/2001/REC-SVG-20010904/DTD/svg10.dtd">
<svg version="1.0" xmlns="http://www.w3.org/2000/svg"
 width="529.000000pt" height="529.000000pt" viewBox="0 0 529.000000 529.000000"
 preserveAspectRatio="xMidYMid meet">
<metadata>
Created by potrace 1.11, written by Peter Selinger 2001-2013
</metadata>
<g transform="translate(0.000000,529.000000) scale(0.100000,-0.100000)"
fill="#000000" stroke="none">
<path d="M2650 4143 c0 -632 -3 -1226 -7 -1320 l-6 -173 -169 0 -168 0 0
-1150 0 -1150 -22 0 c-42 0 -212 40 -325 75 -775 243 -1363 864 -1563 1649
-107 420 -94 866 37 1278 183 581 590 1068 1133 1356 183 98 437 186 653 228
l87 17 0 159 0 158 -22 -4 c-13 -3 -74 -15 -136 -26 -523 -96 -1010 -361
-1397 -761 -397 -409 -637 -906 -721 -1494 -21 -146 -24 -492 -5 -640 108
-863 601 -1594 1356 -2014 334 -186 745 -303 1118 -318 l147 -6 0 1319 0 1319
930 -930 930 -930 132 133 133 132 -888 888 -887 887 0 1063 c0 614 4 1062 9
1062 5 0 52 -9 104 -20 711 -146 1305 -602 1627 -1249 141 -282 224 -597 237
-898 l6 -133 160 0 159 0 -7 113 c-41 675 -288 1248 -739 1714 -390 405 -876
668 -1420 768 -138 25 -322 45 -418 45 l-58 0 0 -1147z"/>
</g>
</svg>
